<svg width="924" height="924" viewBox="0 0 924 924" fill="none" xmlns="http://www.w3.org/2000/svg">
<path d="M303.302 615.661L318.317 660.383L337.952 650.311L317.578 608.038C317.578 608.038 304.272 614.922 303.302 615.661Z" fill="#79E1CF"/>
<path d="M400.508 488.796C425.714 481.681 450.104 471.941 473.273 459.736L587.941 477.754C587.941 477.754 608.916 489.905 611.457 490.275C618.633 489.689 625.821 491.302 632.062 494.895C640.517 500.762 657.426 500.762 661.815 501.501C668.152 503.549 674.208 506.391 679.833 509.956C684.222 512.543 703.718 518.78 707.045 520.998C710.371 523.215 718.04 525.618 719.888 534.858C722.472 546.211 724.019 557.78 724.508 569.415C724.139 577.87 721.967 600.646 718.641 609.471C715.315 618.295 700.993 664.218 700.161 669.531C699.329 674.844 697.62 710.695 695.541 718.087C693.462 725.479 683.437 764.287 681.681 771.355C679.925 778.424 666.62 813.628 664.402 819.865C662.185 826.102 658.858 837.514 659.782 842.272C661.118 847.427 661.492 852.783 660.891 858.073C660.152 863.986 664.957 893 663.478 895.033C662 897.066 610.533 899.422 592.561 893.924C574.589 888.426 502.887 896.142 473.827 894.663C444.767 893.185 367.983 892.446 356.988 890.043C345.992 887.641 332.363 887.133 338.97 879.787C345.576 872.441 346.316 862.138 346.685 852.067C347.653 842.961 349.494 833.976 352.183 825.225L329.083 666.99L362.994 597.69L400.508 488.796Z" fill="#BED4FC"/>
<path d="M719.519 443.52C725.294 447.586 724.554 446.708 719.519 447.355C714.483 448.001 711.849 448.186 711.249 451.466C710.756 454.138 709.997 456.752 708.985 459.274C708.75 459.097 708.531 458.897 708.338 458.674C699.098 445.091 706.259 448.602 689.304 447.216C685.931 447.216 695.217 444.074 697.943 437.976C698.96 435.712 694.201 427.258 696.881 428.736C705.012 433.033 702.378 431.462 703.395 432.062C706.444 433.957 715.499 426.518 718.964 425.502C720.027 432.986 711.48 437.606 719.519 443.52Z" fill="#FFEAB6"/>
<path d="M787.895 300.3C790.158 301.131 783.275 303.118 780.456 305.243C775.836 308.662 780.179 311.526 779.81 316.331C776.206 314.806 772.14 307.091 766.781 307.091C757.125 310.325 756.525 311.711 754.815 311.711C755.37 308.246 763.501 301.224 758.881 297.481C757.079 296.095 752.598 289.489 754.862 289.997C763.824 292.076 763.778 292.492 765.488 291.291C774.497 285.1 774.728 275.583 776.391 288.611C777.823 300.3 774.912 295.68 787.895 300.3Z" fill="#FFEAB6"/>
<path d="M776.668 148.117C776.437 148.441 776.252 148.856 775.929 148.995C764.287 155.001 763.501 154.262 764.194 158.235C765.95 169.184 765.534 167.475 765.257 169.369C752.921 158.189 757.819 159.621 756.017 159.298C752.598 158.789 746.222 162.624 740.078 163.918C737.953 163.918 738.784 163.456 744.097 154.678C749.965 145.114 721.413 133.795 746.176 140.818C750.796 142.157 749.965 141.511 758.373 130.192C761.053 126.542 759.343 143.035 765.58 143.59C767.752 143.59 770.755 146.177 775.698 147.286C776.064 147.512 776.391 147.793 776.668 148.117Z" fill="#FFEAB6"/>
<path d="M298.775 349.272C322.245 344.005 298.775 351.397 303.996 360.175C308.293 367.752 310.048 367.059 301.686 365.211C291.984 363.04 296.373 362.393 286.301 372.603C285.1 373.851 286.532 368.768 286.902 363.964C287.318 358.235 276.23 356.387 274.613 353.384C275.398 353.384 274.012 353.384 281.127 352.691C289.905 351.952 285.747 347.008 289.582 339.154C292.723 341.88 295.957 349.873 298.775 349.272Z" fill="#FFEAB6"/>
<path d="M345.993 245.414C347.148 247.354 341.373 245.414 333.196 242.365C328.576 240.655 329.638 237.19 318.735 252.436C314.53 258.396 320.675 239.316 313.699 236.728C297.899 230.815 297.898 232.108 315.27 225.825C319.058 224.439 317.256 216.169 319.89 209.055C336.383 224.485 322.477 223.192 346.593 217.648C343.036 227.165 335.644 229.891 339.894 234.834C342.254 238.162 344.296 241.704 345.993 245.414Z" fill="#FFEAB6"/>
<path d="M471.979 516.562C474.151 526.819 476.276 528.02 473.873 527.65C452.945 524.37 432.524 503.672 428.32 486.301C427.535 483.021 426.98 483.344 430.492 482.143C440.794 478.493 446.107 474.566 444.814 476.876C442.226 481.496 444.074 487.456 443.751 489.581C442.55 497.574 448.094 504.319 456.086 508.57C457.149 509.124 456.779 509.032 463.848 509.494C468.468 508.385 469.069 507.923 469.623 509.494C470.659 511.761 471.448 514.129 471.979 516.562Z" fill="#FFC6A6"/>
<path d="M636.636 164.841C649.294 170.154 652.852 170.986 644.305 173.111C638.946 171.817 638.299 171.725 635.065 165.165C634.741 164.333 635.758 164.472 636.636 164.841Z" fill="#E6FCFF"/>
<path d="M661.953 162.808C662.739 162.808 662.692 163.363 662.369 163.779C660.475 166.32 658.303 170.062 654.746 167.798C645.506 161.838 627.488 159.113 632.431 151.397C634.464 148.256 632.801 151.859 643.335 156.387C654.746 161.284 658.858 163.178 661.953 162.808Z" fill="#E6FCFF"/>
<path d="M665.742 152.829C668.56 153.106 665.095 158.142 660.614 158.05C653.175 155.463 630.768 147.239 636.959 142.342C637.698 141.787 637.329 140.217 638.391 140.309C640.239 140.309 637.791 142.249 650.034 147.147C662.277 152.044 663.339 152.46 665.742 152.829Z" fill="#E6FCFF"/>
<path d="M642.596 130.423C667.082 148.903 676.784 139.385 669.392 147.979C668.006 149.596 662.646 146.87 660.614 146.131C650.727 142.481 634.233 137.214 642.596 130.423Z" fill="#E6FCFF"/>
<path d="M707.368 97.5745C708.8 97.9903 707.738 101.363 706.444 100.67C701.547 98.1751 705.659 97.0201 707.368 97.5745Z" fill="#FFD152"/>
<path d="M658.534 84.916C655.993 86.995 654.838 82.9756 656.502 82.5136C657.056 82.375 658.026 84.1306 658.534 84.916Z" fill="#FFD152"/>
<path d="M675.952 47.1241C733.194 46.8007 745.529 122.107 686.023 128.898C678.262 129.822 676.783 127.604 674.381 130.7C670.038 136.844 672.856 139.616 669.299 138.692C662.038 136.837 655.116 133.843 648.786 129.822C642.919 126.265 653.406 125.202 650.357 118.595C647.308 111.989 647.169 117.025 642.364 109.355C620.142 73.9201 651.651 45.7843 675.952 47.1241ZM704.503 105.983C707.414 113.19 716.469 96.1423 709.493 93.8785C702.517 91.6147 700.669 96.5119 699.56 96.2347C688.842 93.8323 695.494 95.2183 689.304 92.0305C686.439 90.5521 684.175 94.0171 681.865 90.7369C678.216 85.4701 680.849 90.7369 663.709 83.8993C662.508 83.4373 661.861 81.7741 660.937 80.6653C660.013 79.5565 658.581 79.5565 656.871 79.0945C651.882 77.7547 649.017 87.9649 656.871 89.3047C657.703 89.3047 658.303 89.3047 658.026 90.7369C656.271 98.2675 666.481 104.597 664.448 108.247C661.688 113.528 659.74 119.198 658.673 125.063C658.442 126.449 659.69 125.71 660.198 126.126C662.138 127.789 663.062 119.104 668.052 109.725C671.424 103.488 661.63 97.2511 661.861 91.8919C662.138 85.0081 664.818 88.9351 671.101 90.9217C674.612 92.0305 677.292 90.9217 678.262 93.2317C678.889 94.466 679.94 95.4342 681.219 95.9598C682.501 96.4857 683.925 96.5338 685.238 96.0961C689.489 94.9873 688.38 98.2675 693.369 99.3301C698.359 100.393 698.313 100.162 698.313 102.01C698.313 102.656 698.313 103.349 697.527 103.534C695.152 104.345 692.888 105.447 690.782 106.814C688.149 108.062 689.304 105.937 684.915 108.801C678.308 113.098 679.417 110.372 676.645 112.543C672.025 116.285 661.907 126.958 665.141 129.499C668.375 132.04 668.745 125.387 675.305 119.381C681.865 113.375 680.849 116.285 683.067 114.761C687.687 111.896 688.333 111.481 689.026 111.434C693 111.111 696.049 107.785 699.052 107.507C703.117 107.138 702.055 103.58 702.933 103.858C703.81 104.135 704.18 105.197 704.503 105.983Z" fill="#FFD152"/>
<path d="M308.525 89.8581C309.251 92.2586 309.231 94.8231 308.467 97.212C307.704 99.6006 306.233 101.702 304.25 103.236C302.266 104.77 299.863 105.666 297.359 105.805C294.855 105.944 292.368 105.319 290.227 104.013C288.086 102.708 286.392 100.783 285.369 98.4929C284.346 96.2033 284.042 93.6569 284.499 91.191C284.954 88.7247 286.149 86.4555 287.923 84.683C289.697 82.9104 291.968 81.7189 294.434 81.2649C297.428 80.7248 300.515 81.3011 303.112 82.885C305.709 84.4685 307.635 86.9499 308.525 89.8581Z" fill="#9EDEFF"/>
<path d="M262.74 129.637C264.773 127.327 267.36 125.017 268.608 128.113C268.608 128.113 226.612 175.052 226.519 175.144C223.101 172.788 221.761 177.593 262.74 129.637Z" fill="#9EDEFF"/>
<path d="M290.599 170.478C291.431 172.465 291.061 171.725 261.955 200.554C260.477 202.079 261.17 202.033 259.553 178.886C259.553 176.715 278.033 162.254 283.993 155.14C289.952 148.025 288.382 149.226 290.599 170.478Z" fill="#9EDEFF"/>
<path d="M239.964 110.88C243.521 110.418 233.45 118.595 226.104 129.683C224.441 132.086 218.157 140.494 215.709 140.818C215.709 140.818 192.609 141.511 192.609 141.372C191.962 140.494 204.297 128.713 215.709 115.639C217.141 113.467 217.141 113.837 239.964 110.88Z" fill="#9EDEFF"/>
<path d="M352.276 43.8443C351.822 50.3816 350.389 56.8134 348.025 62.9249C336.891 90.0905 337.861 87.6419 334.812 82.1903C320.675 57.0113 301.086 54.4703 304.782 52.2065C314.152 45.3069 324.683 40.1433 335.875 36.9606C353.385 32.3406 351.444 36.9606 352.276 43.8443Z" fill="#FF8E92"/>
<path d="M632.57 382.121C629.013 369.97 637.791 339.339 640.424 332.548C643.997 320.304 645.033 307.461 643.473 294.803C641.625 280.342 631.461 255.856 626.102 243.983C620.743 232.109 597.458 210.118 590.066 204.389C582.674 198.66 547.239 183.784 534.626 178.24C522.014 172.696 499.329 171.449 499.329 171.449C495.945 167.213 491.221 164.252 485.931 163.052C480.645 161.852 475.105 162.483 470.223 164.842C456.363 170.987 454.053 185.771 452.852 186.094C424.208 185.771 420.189 208.871 420.189 208.871C409.563 219.635 412.52 226.427 416.955 233.495C421.39 240.564 435.758 240.749 435.758 240.749C435.758 240.749 523.122 221.76 549.78 263.34C576.437 304.92 565.95 372.742 565.95 372.742L566.689 440.101C570.92 444.121 576.21 446.846 581.939 447.971C587.664 449.091 593.593 448.556 599.029 446.431C582.443 433.772 585.631 426.565 585.631 426.565C610.764 442.088 621.852 426.565 621.852 426.565C617.582 425.729 613.578 423.862 610.198 421.124C606.814 418.383 604.153 414.861 602.448 410.857C609.851 413.101 617.497 414.449 625.224 414.876C645.876 416.863 650.496 405.636 650.496 405.636C650.496 405.636 636.081 394.271 632.57 382.121Z" fill="#FFB564"/>
<path d="M455.624 415.8C454.334 414.36 453.618 412.493 453.618 410.556C453.618 408.62 454.334 406.752 455.624 405.313C427.211 387.803 433.31 373.342 427.211 376.252C420.674 379.139 413.69 380.889 406.56 381.427C404.712 381.981 411.688 393.901 427.073 399.029C440.101 403.372 413.213 415.8 409.101 416.123C402.402 416.632 430.676 433.587 446.708 422.776C447.085 422.472 447.551 422.291 448.032 422.264C448.517 422.237 448.998 422.36 449.406 422.622C449.815 422.884 450.13 423.265 450.311 423.716C450.492 424.166 450.523 424.663 450.404 425.132C449.106 431.589 446.781 437.795 443.52 443.52C451.512 444.952 460.66 439.685 467.313 435.158C469.068 434.003 468.422 431.97 469.115 430.538C469.392 429.891 463.571 425.594 455.624 415.8Z" fill="#FFB564"/>
<path d="M382.86 472.718C391.314 490.274 391.684 489.397 389.605 490.136L295.68 521.136C294.571 521.136 296.096 523.769 275.214 482.467C274.151 480.388 268.561 483.206 334.488 461.122C345.946 457.288 356.849 453.453 369.092 449.434C372.234 448.417 369.6 445.276 382.86 472.718ZM370.247 487.733C368.26 484.315 366.69 486.671 364.241 486.763C363.64 486.763 303.811 505.243 299.561 507.276C297.482 508.154 295.588 510.926 298.129 511.573C299.099 511.804 366.69 491.845 370.247 487.733ZM355.74 468.237C357.219 467.498 358.235 464.911 355.094 464.264C354.539 464.264 350.982 465.326 345.853 466.62C327.604 471.24 325.064 474.659 320.351 474.566C314.9 474.566 315.13 476.784 306.999 478.586C288.519 482.698 291.522 484.453 286.579 484.684C285.978 484.684 285.008 486.116 284.823 486.671C284.407 488.334 289.443 489.304 291.846 487.964C296.983 485.204 302.594 483.433 308.385 482.744C316.008 481.404 315.731 478.955 320.213 479.186C328.76 478.031 331.994 474.566 339.755 472.626C347.517 470.686 349.827 471.24 355.74 468.237ZM343.59 485.1C344.363 485.15 345.129 484.923 345.748 484.457C346.367 483.987 346.798 483.317 346.962 482.559C346.962 477.246 328.482 485.701 319.751 487.179C311.804 488.519 293.74 493.786 291.107 496.65C289.259 498.683 290.275 499.838 292.77 499.976C302.01 496.835 300.762 496.419 304.089 495.356C323.308 489.951 310.095 494.386 330.469 488.519C339.709 486.024 340.309 485.1 343.59 485.1Z" fill="#FFF5DB"/>
<path d="M309.54 597.412C310.926 600.23 305.843 601.801 302.887 602.356C301.131 601.201 305.012 607.622 262.693 522.383C235.62 468.514 235.619 470.686 238.391 470.686C252.806 470.732 230.491 438.9 309.54 597.412Z" fill="#79E1CF"/>
<path d="M248.648 504.273C300.115 608.685 299.145 603.88 296.927 604.665C269.207 614.183 283.067 632.385 280.203 638.622C278.678 636.451 183.183 440.794 182.536 439.177C183.275 438.9 180.781 437.652 221.252 461.815C234.234 469.577 226.703 459.69 248.648 504.273Z" fill="#79E1CF"/>
<path d="M390.852 453.083C375.099 420.42 376.162 422.36 374.868 422.822C361.008 427.766 288.474 451.836 276.231 455.855C246.063 465.834 247.957 463.894 249.805 467.498C320.491 605.682 309.865 597.874 317.95 595.703C327.421 595.472 321.091 611.226 321.415 612.058C321.738 612.889 324.048 618.664 325.342 618.202C328.132 616.989 330.985 615.923 333.889 615.014C340.419 614.048 346.78 612.165 352.785 609.424C365.721 602.817 365.905 623.561 349.551 631.554C345.126 634.245 340.375 636.355 335.413 637.837C334.582 637.837 334.397 638.484 334.767 639.223C338.093 646.246 337.261 645.691 339.387 645.691C364.335 645.691 361.378 641.672 378.657 638.022C383.739 636.913 385.862 643.15 383.877 647.262C383.415 648.186 384.201 648.094 385.169 647.816C385.169 647.816 468.329 623.192 471.933 622.037C475.536 620.882 473.827 625.04 390.852 453.083ZM392.7 493.785C391.96 494.063 306.03 522.568 295.681 525.617C291.847 525.201 292.586 527.28 271.195 482.79C268.331 476.876 264.543 479.648 369.832 444.629C373.99 443.243 373.806 444.629 379.581 456.456C395.194 488.519 398.613 491.753 392.7 493.785Z" fill="#79E1CF"/>
<path d="M641.81 722.753C646.43 729.637 647.493 718.826 609.101 773.018C604.939 778.651 600.434 784.022 595.61 789.096C589.096 796.627 583.876 805.035 573.573 812.935C549.457 831.415 531.392 826.795 510.371 802.171C507.187 796.761 504.924 790.859 503.672 784.707C500.669 772.556 495.31 769.184 491.568 755.416C481.774 719.426 492.446 545.53 493.416 544.652C497.389 541.002 491.198 542.804 482.282 531.161C475.028 521.921 478.401 512.035 463.802 488.288C463.509 487.645 463.074 487.079 462.531 486.628C461.985 486.182 461.346 485.862 460.66 485.701C457.842 485.239 460.152 488.888 461.446 491.753C463.386 495.957 459.413 493.277 458.674 493.231C456.779 493 455.486 495.172 461.954 498.96C462.739 499.422 464.864 499.468 465.419 500.207C465.962 501.239 466.35 502.344 466.574 503.488C466.574 504.134 466.574 504.319 465.973 504.365C460.891 504.966 458.674 506.029 454.469 502.471C452.067 500.438 447.77 495.818 447.863 492.677C448.094 483.437 446.523 478.817 454.469 474.197C457.565 472.487 458.119 469.577 458.304 466.158C458.627 459.875 464.957 463.294 467.544 455.116C471.24 443.474 488.149 453.73 485.701 447.216C478.216 427.581 454.747 414.876 457.981 409.24C461.03 404.296 472.164 413.49 475.028 416.816C483.991 426.934 500.438 440.702 501.917 450.311C502.841 456.086 506.86 458.073 510.88 471.563C518.133 495.772 526.357 506.075 527.327 532.825C528.851 574.405 571.771 733.979 571.817 734.118C573.019 736.613 575.883 735.55 575.744 732.963C574.081 701.963 556.802 667.775 561.053 667.544C568.06 667.059 575.071 668.429 581.381 671.517C585.631 674.705 611.873 698.036 614.183 700.207C624.254 709.17 634.927 712.219 641.81 722.753Z" fill="#FFC6A6"/>
<path d="M589.512 330.838C609.008 314.345 632.062 327.743 612.612 358.882C608.731 365.026 604.85 370.339 587.895 377.362C565.857 386.602 563.224 330.191 562.808 432.802C562.808 461.908 565.95 470.639 606.837 490.459C608.454 491.245 594.27 501.824 594.178 501.871C569.553 519.519 584.014 511.111 556.756 522.06C552.136 523.816 533.055 531.716 532.732 528.805C529.036 497.897 521.644 490.829 516.562 472.718C511.942 456.733 506.768 452.668 506.306 447.308C505.659 439.454 487.826 424.208 485.654 421.436C484.869 420.512 484.961 420.143 486.116 419.727C538.184 402.772 530.283 389.882 525.017 392.977C514.298 399.214 466.296 416.401 443.936 390.76C419.403 362.578 418.849 312.543 429.013 315.685C433.213 316.614 437.591 316.373 441.664 314.988C445.734 313.603 449.349 311.127 452.113 307.831C454.793 305.151 452.113 315.361 465.049 317.717C467.729 318.226 468.745 314.945 467.128 314.16C463.201 312.173 459.505 311.249 457.38 304.643C455.717 299.515 471.702 303.626 471.24 291.614C471.24 288.427 468.144 288.334 467.451 291.199C466.204 296.142 467.451 295.403 460.059 296.789C459.413 296.789 459.228 296.789 459.459 296.003C463.524 283.206 462.231 279.556 466.389 276.461C468.191 275.408 470.243 274.858 472.326 274.87C474.412 274.881 476.457 275.452 478.247 276.524C480.037 277.596 481.504 279.129 482.501 280.963C483.494 282.796 483.98 284.864 483.899 286.948C484.499 302.056 499.145 324.185 516.239 323.539C540.447 322.568 547.424 297.62 551.813 294.895C554.723 293.047 557.772 294.202 570.062 301.732C573.665 303.904 563.178 325.802 580.272 333.287C582.074 334.072 578.147 336.475 582.536 337.907C583.044 338.461 585.539 334.165 589.512 330.838ZM611.642 345.345C612.281 344.054 612.546 342.61 612.408 341.176C612.269 339.742 611.734 338.376 610.86 337.232C609.982 336.087 608.804 335.211 607.457 334.702C606.109 334.192 604.646 334.07 603.233 334.349C595.749 335.966 587.571 345.484 591.545 353.199C592.884 355.832 591.545 361.284 588.773 361.931C583.275 363.132 582.905 360.545 581.565 363.04C580.226 365.534 583.182 367.66 586.185 367.66C595.703 367.66 598.89 356.756 595.841 350.889C595.452 350.249 595.221 349.523 595.171 348.775C595.125 348.026 595.26 347.277 595.564 346.592C597.504 341.972 607.16 333.241 608.084 345.622C608.315 346.916 610.671 347.378 611.642 345.345ZM465.834 350.566C465.834 348.902 464.818 344.051 460.937 343.959C456.317 343.959 455.624 350.843 458.951 354.215C460.937 356.294 464.726 356.756 465.834 350.566Z" fill="#FFC6A6"/>
<path d="M391.175 694.894C404.665 704.134 402.586 695.31 396.072 739.107C392.915 758.003 388.488 776.664 382.812 794.963C381.519 798.752 383.459 784.106 382.812 768.583C382.166 747.516 360.452 712.311 358.142 713.143C353.522 714.668 362.762 720.073 374.034 751.304C381.75 773.203 377.684 803.325 372.279 811.364C365.256 821.713 359.158 826.102 341.463 823.422C333.526 822.225 326.121 818.702 320.184 813.301C314.247 807.899 310.045 800.858 308.107 793.069C305.612 782.813 301.547 770.986 303.487 758.558C312.727 692.03 307.183 722.845 318.733 738.738H320.812C320.165 733.702 319.703 734.118 313.512 713.79C311.572 707.322 311.526 706.398 309.493 705.104C300.761 699.653 302.378 698.775 300.669 689.535C299.606 683.945 292.722 685.423 293.6 677.569C293.84 675.355 293.512 673.115 292.647 671.063C291.783 669.007 290.409 667.209 288.657 665.834C285.469 662.831 286.208 653.961 291.752 648.186C301.639 637.929 302.748 633.356 312.357 626.241C313.882 625.086 314.252 625.502 328.481 622.175C331.577 621.436 329.682 620.697 336.197 619.542C353.614 616.4 358.003 610.302 357.818 614.183C357.419 617.309 356.158 620.258 354.175 622.707C352.192 625.155 349.566 627.003 346.592 628.043C342.846 630.222 338.882 632.004 334.764 633.356C307.044 639.639 308.523 658.211 313.05 652.898C318.964 645.968 318.086 644.536 320.304 648.602C321.967 651.651 321.135 650.265 315.684 655.162C311.064 659.32 295.633 671.794 303.117 670.685C304.18 670.685 304.781 669.992 314.575 661.769C321.551 655.855 324.369 650.542 346.915 650.311C359.897 650.311 370.015 644.351 378.839 642.642C382.212 641.949 381.334 652.76 357.68 659.135C352.518 661.203 347.163 662.75 341.694 663.755C337.369 663.971 333.198 665.43 329.682 667.959C326.448 671.009 324.046 672.579 325.709 674.289C326.31 674.936 326.864 675.444 327.742 674.52C333.332 668.699 339.107 668.976 350.842 666.62C354.353 665.927 353.614 664.171 359.204 663.617C364.923 662.635 370.583 661.337 376.16 659.736C380.78 659.736 377.222 669.53 353.06 678.863C341.371 683.483 335.873 684.73 331.761 690.875C330.653 692.538 329.729 695.033 331.761 695.957C335.134 697.481 333.101 690.413 345.159 686.024C347.238 685.284 347.747 685.1 348.486 694.34C350.057 714.39 342.665 723.168 342.064 731.3C342.064 732.408 343.358 733.841 344.744 732.131C346.842 727.608 348.708 722.984 350.334 718.271C360.683 687.317 336.474 677.246 368.814 687.179C383.459 691.706 385.492 691.013 391.175 694.894Z" fill="#FFC6A6"/>
<path d="M316.379 601.062C322.662 599.63 317.441 613.213 305.937 619.542C296.697 624.763 295.773 625.271 294.48 626.842C293.186 628.412 294.48 630.399 295.681 629.983C303.258 627.766 315.824 614.229 290.045 643.843C283.946 650.866 284.87 651.374 284.039 645.183C284.094 642.831 284.31 640.486 284.685 638.161C285.84 632.663 279.788 619.681 286.256 615.569C294.627 610.479 303.517 606.298 312.775 603.095C313.888 602.271 315.099 601.589 316.379 601.062Z" fill="#FFC6A6"/>
<path d="M431.138 258.72C431.138 258.074 434.834 240.24 439.362 233.726C443.889 227.212 459.413 210.626 459.413 210.626C459.413 210.626 470.963 216.632 472.025 206.006C472.025 206.006 476.368 210.118 481.265 202.495C486.162 194.872 498.96 195.657 503.58 197.69C508.2 199.723 520.905 202.033 527.927 213.814C534.95 225.595 559.02 266.667 563.316 272.58C567.613 278.494 581.242 295.68 571.124 298.591L552.644 288.057C552.644 288.057 546.222 269.254 530.099 266.574C513.975 263.895 494.802 262.278 486.948 275.814C486.948 275.814 471.471 266.574 460.706 276.415C460.706 276.415 458.258 261.954 444.813 259.691C431.369 257.427 431.138 258.72 431.138 258.72Z" fill="#FFC6A6"/>
<path d="M121.738 347.332L119.566 334.257L129.961 343.035L143.359 336.752L138.832 351.675L148.349 365.535L132.456 362.809L126.173 376.854L122.154 359.991L108.34 353.43L121.738 347.332Z" fill="#FFEAB6"/>
<path d="M787.156 343.404C765.58 360.591 763.27 393.532 752.413 385.632C739.985 376.391 732.039 366.735 731.669 352.875C731.669 349.041 729.59 345.299 725.894 346.685C722.891 347.994 719.804 349.105 716.654 350.011C706.075 352.783 706.49 343.173 701.593 347.655C699.622 349.018 697.778 350.565 696.095 352.275C694.571 353.661 695.31 352.875 691.799 350.242C688.288 347.609 683.206 351.212 683.899 353.245C684.237 353.739 684.73 354.104 685.3 354.281C685.87 354.457 686.486 354.434 687.04 354.215C689.766 353.014 690.182 355.601 692.954 357.819C697.574 361.561 701.224 349.364 705.197 352.182C711.803 356.802 714.806 355.232 724.878 351.813C731.115 349.734 719.149 363.548 744.143 384.753C758.003 396.627 760.36 392.885 771.217 371.171C775.19 363.224 782.998 350.288 790.066 345.945C792.977 344.144 796.396 343.22 803.51 348.255C820.189 360.083 812.75 363.086 810.579 368.214C810.209 369.138 812.196 370.801 813.074 369.6C818.572 362.069 817.047 364.425 818.202 360.776C816.215 349.318 797.504 335.181 787.156 343.404Z" fill="#000001"/>
<path d="M780.225 284.5C779.856 282.19 779.117 279.88 778.655 277.616C778.601 277.069 778.381 276.551 778.027 276.131C777.673 275.71 777.199 275.407 776.668 275.26C774.866 274.706 774.635 275.722 768.444 283.068C762.947 289.582 766.227 288.473 752.736 285.147C751.993 285.279 751.289 285.576 750.673 286.015C750.057 286.455 749.545 287.026 749.179 287.688C748.255 289.028 748.347 289.536 752.459 296.189C755.97 301.871 757.079 300.485 755.416 302.934C746.684 316.008 742.757 320.305 758.835 314.438C768.075 311.111 767.705 310.603 769.045 311.943C775.282 318.18 783.875 328.713 784.383 319.889C784.603 316.428 784.068 312.96 782.813 309.725C782.166 306.399 794.871 304.689 795.61 299.931C795.671 299.725 795.691 299.508 795.668 299.294C795.641 299.08 795.575 298.873 795.464 298.687C795.356 298.5 795.213 298.338 795.036 298.211C794.863 298.083 794.667 297.992 794.455 297.944C776.853 291.707 782.304 297.806 780.225 284.5ZM780.456 305.152C775.836 308.571 780.179 311.435 779.81 316.239C776.206 314.715 772.14 306.999 766.781 306.999C757.125 310.233 756.525 311.619 754.815 311.619C755.37 308.154 763.501 301.132 758.881 297.39C757.079 296.004 752.598 289.397 754.862 289.905C763.824 291.984 763.778 292.4 765.487 291.199C774.496 285.008 774.728 275.491 776.391 288.519C777.823 300.254 774.912 295.449 787.895 300.162C790.02 301.04 783.367 303.027 780.456 305.152Z" fill="#000001"/>
<path d="M722.568 209.378C722.937 227.858 734.534 237.098 715.13 234.603C685.377 230.722 679.417 223.561 682.235 245.183C682.605 248.094 682.743 247.17 668.375 252.991C661.168 255.948 664.448 259.597 668.375 258.073C681.496 252.714 687.271 251.928 686.855 246.199C685.931 236.082 684.638 234.28 688.472 234.927C714.39 239.085 718.779 240.055 723.446 239.547C741.648 237.606 718.456 208.639 730.884 202.587C739.616 198.244 742.526 205.174 784.43 221.852C786.74 222.776 789.05 223.7 789.789 221.529C790.528 219.357 788.403 219.219 787.248 218.757C745.668 201.709 749.918 200.877 741.048 197.967C739.096 197.053 736.947 196.64 734.795 196.764C732.643 196.889 730.557 197.547 728.724 198.679C726.891 199.811 725.367 201.382 724.293 203.25C723.218 205.118 722.625 207.224 722.568 209.378Z" fill="#000001"/>
<path d="M740.493 152.784C737.028 158.466 728.989 170.848 736.428 169C739.2 168.353 744.513 167.337 745.668 166.875C752.736 164.472 752.967 163.502 753.937 164.518C763.177 173.758 769.784 183.876 769.322 166.967C769.045 159.021 767.289 157.727 769.553 156.849C772.556 155.556 778.516 152.229 780.179 151.813C785.862 150.104 786.139 146.408 783.69 145.299C781.242 144.19 774.45 142.897 770.246 141.095C763.547 138.092 766.411 142.204 762.115 125.202C762.015 124.696 761.757 124.236 761.376 123.885C760.998 123.535 760.517 123.313 760.005 123.252C759.493 123.19 758.973 123.292 758.523 123.543C758.072 123.794 757.714 124.18 757.495 124.648C756.94 125.387 755 128.159 749.086 136.845C747.7 138.924 734.441 131.947 732.27 134.535C726.818 140.864 742.295 149.827 740.493 152.784ZM746.037 141.049C750.657 142.389 749.826 141.742 758.234 130.423C760.914 126.773 759.204 143.266 765.441 143.821C767.566 143.821 770.616 146.408 775.559 147.517C775.956 147.661 776.329 147.863 776.668 148.117C776.437 148.441 776.252 148.857 775.929 148.995C764.286 155.001 763.501 154.262 764.194 158.235C765.949 169.185 765.534 167.475 765.256 169.369C752.921 158.189 757.818 159.621 756.016 159.298C752.598 158.79 746.222 162.624 740.077 163.918C737.952 163.918 738.784 163.456 744.097 154.678C749.826 145.207 721.274 133.98 746.037 141.049Z" fill="#000001"/>
<path d="M631.276 163.364C631.068 165.168 631.242 166.995 631.785 168.728C632.324 170.461 633.224 172.062 634.418 173.428C635.615 174.794 637.082 175.895 638.73 176.66C640.378 177.425 642.164 177.837 643.981 177.87C650.727 178.471 653.452 172.696 655.993 173.25C661.676 174.359 666.204 168.076 666.388 163.595C666.388 161.238 668.144 159.668 669.068 157.404C669.992 155.14 668.791 153.708 669.992 153.338C671.759 152.122 673.184 150.472 674.131 148.547C675.078 146.621 675.513 144.485 675.397 142.343C675.397 141.742 676.968 139.617 675.397 137.723C675.074 137.307 676.645 134.812 677.014 134.442C677.384 134.073 721.366 137.584 729.082 98.8222C740.355 42.181 649.387 19.2658 632.431 73.6894C623.191 102.98 647.215 118.503 645.783 121.506C642.041 129.222 639.639 126.126 638.253 129.499C634.557 138.046 638.253 136.983 636.266 138.046C629.613 141.465 633.309 145.669 630.999 147.286C629.197 148.61 627.973 150.579 627.588 152.783C627.199 154.986 627.677 157.254 628.92 159.113C630.722 161.238 631.646 161.7 631.276 163.364ZM644.305 173.112C638.946 171.818 638.299 171.726 635.065 165.165C634.649 164.334 635.665 164.472 636.543 164.842C649.294 170.109 652.852 170.94 644.305 173.112ZM642.18 109.356C619.957 74.1052 651.42 45.7846 675.767 47.1244C733.009 46.801 745.344 122.107 685.839 128.898C678.077 129.822 676.599 127.605 674.196 130.7C669.853 136.845 672.672 139.617 669.114 138.693C661.849 136.837 654.927 133.843 648.601 129.822C642.734 126.265 653.221 125.202 650.172 118.596C647.123 111.989 647.169 117.025 642.18 109.356ZM642.411 130.423C666.897 148.903 676.599 139.386 669.207 147.979C667.821 149.596 662.461 146.87 660.429 146.131C650.727 142.481 634.233 137.214 642.595 130.423H642.411ZM636.774 142.343C637.513 141.788 637.144 140.217 638.206 140.31C640.054 140.31 637.606 142.25 649.849 147.147C662.092 152.045 663.154 152.599 665.557 152.83C667.959 153.061 665.28 158.143 660.66 158.051C653.175 155.463 630.814 147.24 636.959 142.343H636.774ZM632.154 151.583C634.187 148.441 632.524 152.045 643.057 156.572C654.469 161.516 658.581 163.364 661.537 162.994C662.323 162.994 662.277 163.548 661.953 163.964C660.059 166.505 657.888 170.247 654.33 167.984C645.321 161.7 627.488 159.113 632.431 151.398L632.154 151.583Z" fill="#000001"/>
<path d="M722.614 440.563C719.01 438.253 720.396 437.976 721.182 434.557C724.369 420.697 724.231 421.667 724.046 420.697C724.023 420.308 723.892 419.931 723.669 419.608C723.445 419.284 723.137 419.034 722.779 418.876C722.421 418.718 722.029 418.661 721.64 418.715C721.251 418.768 720.885 418.926 720.581 419.173C715.961 422.822 710.694 424.994 705.982 428.413C703.81 429.891 696.511 422.499 694.848 423.146C692.399 424.162 690.597 425.363 691.383 428.366C694.663 440.24 693.646 438.992 691.937 440.101C686.901 443.335 682.697 444.721 683.02 448.833C683.02 452.159 693.092 451.928 696.88 451.975C700.669 452.021 699.883 453.638 701.177 455.763C706.952 465.28 710.417 470.778 713.281 459.967C715.776 451.004 712.681 451.975 728.019 451.466C734.58 450.958 729.636 445.045 722.614 440.563ZM719.334 447.262C713.928 447.955 711.664 448.094 711.064 451.374C710.571 454.046 709.813 456.66 708.8 459.182C708.561 459.005 708.346 458.805 708.153 458.581C698.913 444.998 706.074 448.51 689.119 447.124C685.746 447.124 695.032 443.982 697.758 437.884C698.775 435.62 694.016 427.165 696.696 428.644C704.827 432.94 702.193 431.369 703.21 431.97C706.259 433.864 715.314 426.426 718.779 425.41C720.027 433.033 711.249 437.653 719.518 443.474C725.34 447.493 724.554 446.615 719.334 447.262Z" fill="#000001"/>
<path d="M671.101 503.072C657.98 496.142 647.4 501.316 631.23 492.169C626.587 488.915 620.939 487.41 615.291 487.918C611.364 488.935 577.269 474.058 569.923 457.888C568.367 453.672 567.555 449.214 567.52 444.721C567.197 441.21 584.476 456.271 601.2 448.048C601.635 447.897 602.016 447.624 602.298 447.262C602.582 446.9 602.756 446.465 602.798 446.011C602.84 445.553 602.756 445.091 602.544 444.683C602.336 444.275 602.013 443.936 601.616 443.705C595.56 441.164 590.455 436.783 587.017 431.185C586.462 430.261 585.816 428.413 587.941 429.845C606.744 442.642 631.415 428.967 623.884 425.225C617.189 423.527 611.245 419.662 606.975 414.229C606.051 413.074 606.975 413.259 607.53 413.582C621.39 419.773 640.886 418.895 651.882 408.316C657.61 402.772 639.223 400.415 635.203 378.794C631.184 357.172 644.443 342.989 646.753 306.075C647.955 286.856 633.633 251.236 624.577 237.93C599.953 201.802 564.517 184.153 520.304 171.587C509.84 169.178 498.929 169.48 488.611 172.465C486.763 173.204 487.179 176.253 489.396 175.93C505.355 172.406 522.037 174.461 536.659 181.751C554.677 190.252 590.297 198.29 617.324 236.313C676.645 319.473 603.464 361.053 640.101 399.029C647.816 407.022 648.925 405.728 645.275 407.9C638.73 411.561 631.292 413.309 623.804 412.951C616.311 412.593 609.073 410.137 602.91 405.867C600.045 404.019 597.088 405.867 598.613 409.332C605.035 424.855 620.65 426.888 616.631 428.274C595.379 435.435 586.786 422.407 583.783 420.743C577.407 417.325 576.252 431.185 593.808 444.536C597.458 447.308 566.781 444.952 567.058 434.927C569.599 350.473 561.468 387.526 586 384.107C606.375 381.196 629.89 352.321 624.254 331.947C620.466 318.41 607.945 319.981 604.804 317.717C574.358 295.865 558.188 289.12 549.364 275.26C538.923 258.905 499.976 253.268 486.255 272.534C485.746 273.273 485.331 273.458 484.638 272.534C483.371 271.012 481.8 269.766 480.033 268.873C478.262 267.98 476.329 267.459 474.35 267.342C472.372 267.225 470.393 267.515 468.529 268.193C466.67 268.872 464.964 269.924 463.524 271.286C462.924 271.933 462.646 271.933 462.415 271.009C460.013 261.122 446.569 256.456 435.527 255.856C433.818 255.856 433.494 256.456 437.929 244.952C438.761 242.827 443.566 242.365 450.681 247.447C457.102 251.42 452.621 236.544 442.411 236.775C437.791 236.775 455.901 216.955 458.719 213.675C460.198 212.012 460.614 214.876 464.263 215.2C465.788 215.2 466.758 212.797 464.91 211.365C441.21 192.885 466.342 154.909 488.703 167.152C493.323 169.785 495.587 164.888 491.106 162.532C475.305 154.816 457.426 165.35 452.436 182.629C451.789 184.754 451.651 182.305 440.886 184.8C436.066 185.938 431.631 188.334 428.039 191.742C424.443 195.15 421.813 199.45 420.42 204.204C419.796 206.385 418.579 208.352 416.908 209.887C406.282 221.344 411.364 235.943 423.469 239.593C424.347 239.87 427.812 240.286 428.089 238.669C428.828 235.99 426.657 235.943 424.947 235.435C408.777 230.584 418.248 208.824 420.05 216.539C421.852 224.255 432.293 233.957 434.557 229.984C436.821 226.01 418.11 221.206 425.04 203.881C430.491 190.021 451.143 185.401 451.096 190.806C450.819 207.9 458.396 209.286 456.548 211.226C447.308 220.882 442.688 224.301 437.005 236.313C436.597 237.349 435.824 238.203 434.834 238.715C427.858 241.949 425.271 252.575 427.95 251.005C433.679 247.17 431.831 247.401 430.399 254.562C429.706 257.935 425.086 254.839 413.443 261.122C392.7 272.58 402.771 299.792 420.42 311.85C427.119 316.47 407.206 322.892 426.98 370.339C427.072 370.492 427.126 370.665 427.138 370.844C427.149 371.022 427.119 371.2 427.046 371.364C426.972 371.527 426.861 371.671 426.722 371.782C426.584 371.893 426.418 371.969 426.241 372.002C418.976 375.273 411.11 377.004 403.141 377.084C400.369 376.807 400.461 379.856 401.293 382.074C408.177 400.554 427.257 402.263 423.654 404.389C409.101 413.074 409.424 411.457 405.543 412.381C404.827 412.45 404.169 412.801 403.711 413.355C403.252 413.91 403.033 414.622 403.095 415.338C402.771 419.08 405.682 421.205 409.747 424.116C427.119 436.498 444.213 428.736 445.09 429.568C443.724 434.226 441.518 438.592 438.576 442.457C432.201 450.542 450.357 451.697 465.465 442.18C465.738 442.111 466.023 442.111 466.296 442.18C465.78 445.537 465.037 448.856 464.079 452.113C461.861 459.459 456.271 456.733 454.146 464.356C452.251 471.425 416.4 481.312 411.734 484.268C410.209 485.192 411.318 485.885 397.366 457.38C377.593 417.14 378.887 417.186 373.805 418.895C361.977 422.684 366.089 424.67 358.697 409.655C354.909 401.94 268.469 424.486 241.95 456.04C236.36 462.97 239.732 464.68 241.626 462.97C242.689 462.046 250.081 447.447 291.661 429.475C311.386 420.928 332.207 415.172 353.523 412.381C355.925 412.104 354.955 411.411 359.714 421.945C360.915 424.624 245.415 460.244 242.55 463.894C239.686 467.544 233.31 466.389 235.251 464.911C235.68 464.618 235.981 464.175 236.093 463.667C236.204 463.159 236.118 462.631 235.851 462.185C226.611 440.794 216.078 439.085 217.371 434.465C217.371 433.587 213.306 424.024 214.045 422.638C214.784 421.252 236.591 440.656 235.851 453.453C235.851 456.687 241.026 458.073 240.194 452.159C237.838 434.834 214.784 411.272 208.686 418.757C207.623 420.004 212.105 429.106 212.197 431.831C209.24 430.954 193.024 417.971 187.896 424.393C186.741 425.779 187.295 425.964 194.502 439.27C196.304 442.642 191.13 438.854 186.002 435.805C170.617 426.565 176.762 435.481 184.939 452.806C275.999 640.332 283.253 651.466 282.329 656.641C281.859 659.405 282.11 662.242 283.057 664.88C284.004 667.517 285.615 669.869 287.734 671.702C288.45 672.441 288.967 673.35 289.233 674.347C289.5 675.34 289.509 676.387 289.259 677.384C288.75 688.796 296.928 686.948 296.835 693.323C296.885 697.655 298.529 701.817 301.455 705.012C308.478 710.14 305.475 700.115 299.238 757.403C297.482 773.434 302.472 786.509 305.198 796.442C310.973 817.139 332.918 828.505 348.164 828.782C349.734 828.782 350.381 828.227 348.164 835.111C341.095 857.241 350.058 861.815 339.432 875.398C337.553 878.127 336.465 881.327 336.29 884.638C336.35 885.08 336.559 885.489 336.883 885.793C337.208 886.097 337.627 886.282 338.072 886.316C338.516 886.347 338.958 886.228 339.324 885.97C339.689 885.716 339.956 885.342 340.079 884.915C342.296 876.645 349.319 873.041 349.596 861.491C349.596 859.459 349.873 846.707 350.335 844.767C354.447 826.98 353.569 828.828 355.925 828.458C370.94 826.056 374.128 817.648 382.583 806.19C388.495 798.151 401.062 744.559 404.989 706.814C404.989 705.335 404.989 703.811 406.329 702.794C407.668 701.778 414.321 660.521 414.183 656.594C414.183 655.07 411.503 654.469 410.949 655.855C409.424 659.505 407.114 682.143 404.203 697.158C403.88 699.006 403.141 697.851 396.211 692.954C386.971 686.393 385.631 687.964 374.128 684.684C355.648 679.279 360.268 682.004 370.571 675.444C384.431 666.481 383.507 658.119 381.936 656.132C380.365 654.146 375.375 655.301 381.936 653.407C443.058 635.712 466.481 629.059 474.843 625.687C480.618 623.469 479.463 622.822 478.077 621.344C478.077 621.344 469.299 603.511 413.397 489.72C412.566 487.964 412.057 488.611 423.145 485.1C423.885 485.1 424.116 485.1 424.254 485.885C427.011 497.967 433.471 508.885 442.734 517.117C467.544 537.953 476.645 530.699 478.539 533.887C494.293 560.729 486.255 497.805 483.159 691.614C483.159 765.303 489.673 760.914 498.451 782.489C499.144 784.106 503.071 800.969 505.797 803.972C532.824 835.989 554.446 835.435 578.193 816.077C598.105 799.861 631.507 747.424 634.095 749.41C636.682 751.397 640.932 751.582 644.998 754.354C650.496 758.096 659.089 761.746 665.418 759.898C670.639 758.373 669.253 761.977 696.372 682.282C697.804 678.031 695.125 716.932 686.07 752.367C673.596 801.062 653.73 828.874 658.35 847.447C660.198 854.654 657.01 857.241 658.35 869.068C662.97 903.256 660.706 901.085 664.402 901.408C668.098 901.732 663.986 874.843 663.663 873.272C660.844 858.904 664.494 854.792 662.6 846.846C657.703 826.564 684.637 793.947 696.603 722.707C701.87 691.522 697.851 679.371 708.523 649.202C721.828 611.873 730.422 585.585 724.185 546.223C719.565 517.44 710.648 523.954 671.101 503.072ZM238.392 470.732C252.807 470.732 230.4 438.854 309.402 597.458C310.788 600.277 305.706 601.847 302.749 602.402C300.993 601.247 304.874 607.669 262.555 522.43C235.62 468.514 235.62 470.686 238.392 470.686V470.732ZM192.747 427.812C198.891 427.073 225.087 444.952 231.416 462.785C220.652 457.43 210.319 451.255 200.508 444.305C199.631 440.563 193.532 430.492 192.747 427.766V427.812ZM280.203 638.669C278.679 636.451 183.183 440.84 182.537 439.223C183.276 438.946 180.781 437.699 221.252 461.861C234.234 469.623 226.704 459.782 248.649 504.319C300.116 608.731 299.145 603.926 296.928 604.712C269.254 614.183 283.022 632.339 280.203 638.623V638.669ZM284.038 645.322C284.093 642.969 284.309 640.621 284.685 638.299C285.84 632.801 279.788 619.819 286.256 615.707C294.626 610.618 303.516 606.437 312.774 603.233C313.883 602.379 315.093 601.663 316.378 601.108C322.661 599.722 317.441 613.259 305.937 619.588C296.697 624.809 295.773 625.317 294.479 626.888C293.186 628.459 294.479 630.445 295.68 630.029C303.257 627.812 315.824 614.275 290.044 643.889C283.946 650.958 284.87 651.42 284.038 645.275V645.322ZM319.427 617.602C320.213 619.542 319.935 619.219 312.728 620.651C312.728 620.651 312.728 620.651 312.728 620.281C316.748 617.833 317.348 615.061 318.134 615.245C318.919 615.43 318.78 616.169 319.427 617.74V617.602ZM357.496 658.904C352.335 660.972 346.98 662.52 341.511 663.524C337.186 663.74 333.015 665.199 329.499 667.729C326.265 670.778 323.862 672.349 325.526 674.058C326.126 674.705 326.681 675.213 327.558 674.289C333.149 668.468 338.924 668.745 350.658 666.389C354.17 665.696 353.43 663.94 359.021 663.386C364.739 662.404 370.4 661.107 375.976 659.505C380.596 659.505 377.039 669.299 352.876 678.632C341.141 683.252 335.69 684.499 331.578 690.644C330.469 692.307 329.545 694.802 331.578 695.726C334.95 697.25 332.918 690.182 344.976 685.793C347.055 685.054 347.563 684.869 348.302 694.109C349.873 714.16 342.481 722.938 341.88 731.069C341.88 732.178 343.174 733.61 344.56 731.9C345.946 730.191 349.688 719.242 350.15 718.04C360.499 687.086 336.29 677.015 368.63 686.948C383.46 691.568 385.308 690.782 390.99 694.663C404.481 703.903 402.402 695.079 395.887 738.877C392.73 757.772 388.303 776.433 382.629 794.733C381.335 798.521 383.276 783.875 382.629 768.352C381.982 747.285 360.268 712.081 357.958 712.912C353.338 714.437 362.578 719.842 373.851 751.073C381.566 772.972 377.501 803.095 372.095 811.133C365.073 821.482 358.974 825.871 341.28 823.192C333.343 821.994 325.938 818.475 320.001 813.07C314.064 807.668 309.861 800.627 307.923 792.838C305.429 782.582 301.363 770.755 303.303 758.327C312.543 691.799 306.999 722.614 318.549 738.507H320.628C319.982 733.471 319.52 733.887 313.329 713.559C311.388 707.091 311.342 706.167 309.309 704.873C300.578 699.422 302.195 698.544 300.485 689.304C299.423 683.714 292.539 685.192 293.417 677.338C293.657 675.125 293.329 672.884 292.464 670.832C291.599 668.78 290.226 666.978 288.473 665.603C285.285 662.6 286.025 653.73 291.569 647.955C301.455 637.699 302.564 633.125 312.174 626.01C313.698 624.855 314.068 625.271 328.298 621.944C331.393 621.205 329.499 620.466 336.013 619.311C353.43 616.169 357.819 610.071 357.635 613.952C357.236 617.078 355.974 620.031 353.991 622.476C352.008 624.924 349.382 626.772 346.408 627.812C342.663 629.995 338.699 631.773 334.581 633.125C306.861 639.408 308.339 657.98 312.867 652.667C318.78 645.737 317.903 644.305 320.12 648.371C321.783 651.42 320.952 650.034 315.5 654.931C310.88 659.089 295.449 671.563 302.934 670.454C303.996 670.454 304.597 669.761 314.391 661.538C321.368 655.624 324.186 650.311 346.731 650.08C359.714 650.08 369.831 644.12 378.656 642.411C382.028 641.857 381.15 652.667 357.496 659.043V658.904ZM325.618 648.648C325.017 648.094 325.295 648.971 322.661 643.612C322.061 642.319 323.077 641.949 329.545 639.962C330.377 639.685 331.116 641.21 333.01 645.414C333.426 646.523 332.64 646.8 325.618 648.787V648.648ZM471.702 622.037C468.006 623.192 385.077 647.77 384.939 647.816C383.969 648.094 383.183 648.186 383.645 647.262C385.631 643.012 383.645 636.775 378.425 638.022C361.146 641.672 364.103 645.645 339.155 645.691C337.26 645.691 338.092 646.246 334.535 639.223C334.165 638.484 334.535 638.022 335.181 637.837C340.143 636.355 344.894 634.245 349.319 631.554C365.673 623.561 365.489 602.818 352.553 609.424C346.548 612.165 340.187 614.048 333.657 615.014C330.753 615.923 327.9 616.989 325.11 618.202C323.816 618.664 321.783 613.582 321.183 612.058C320.582 610.533 327.189 595.472 317.718 595.703C309.633 597.874 320.259 605.682 249.573 467.498C247.725 463.894 245.831 465.835 275.999 455.855C288.242 451.836 360.961 427.766 374.636 422.822C375.93 422.36 374.636 420.42 390.621 453.083C473.827 625.04 475.12 621.113 471.702 622.175V622.037ZM574.404 306.352C574.404 304.504 573.48 304.504 596.118 319.196C599.075 321.09 592.191 320.305 585.169 328.436C583.829 330.007 583.783 329.914 581.842 328.99C573.434 325.248 573.203 316.1 574.404 306.491V306.352ZM492.861 272.58C502.101 265.003 532.131 265.188 543.681 278.263C553.753 289.72 528.805 331.624 504.18 314.391C492.353 306.121 481.357 281.82 492.861 272.58ZM433.171 293.555C433.171 291.245 430.584 262.508 434.326 262.693C441.352 262.443 448.297 264.276 454.284 267.96C464.217 274.474 452.944 319.473 428.736 310.556C426.148 309.54 432.986 303.488 433.171 293.555ZM420.42 264.957C422.822 264.218 425.04 263.663 427.719 263.017C428.551 263.017 428.967 263.017 428.874 263.941C426.472 284.777 433.217 290.69 425.224 306.676C424.3 308.616 424.116 308.708 422.545 307.461C403.187 291.661 397.782 272.026 420.42 264.957ZM428.967 315.777C433.167 316.706 437.544 316.465 441.614 315.08C445.687 313.695 449.302 311.22 452.067 307.923C454.7 305.243 452.067 315.454 465.003 317.81C467.682 318.318 468.699 315.038 467.082 314.252C463.155 312.266 459.459 311.342 457.333 304.735C455.67 299.607 471.655 303.719 471.193 291.707C471.193 288.519 468.098 288.427 467.405 291.291C466.158 296.234 467.405 295.495 460.013 296.881C459.366 296.881 459.181 296.881 459.412 296.096C463.478 283.298 462.184 279.649 466.342 276.553C468.144 275.501 470.196 274.951 472.279 274.962C474.366 274.973 476.41 275.545 478.2 276.616C479.991 277.688 481.458 279.221 482.455 281.055C483.448 282.889 483.933 284.956 483.852 287.041C484.453 302.148 499.098 324.278 516.192 323.631C540.401 322.661 547.377 297.713 551.766 294.987C554.677 293.139 557.726 294.294 570.015 301.825C573.619 303.996 563.131 325.895 580.225 333.379C582.027 334.165 578.1 336.567 582.489 337.999C583.182 337.999 585.677 333.887 589.65 330.561C609.147 314.068 632.2 327.466 612.75 358.604C608.869 364.749 604.989 370.062 588.033 377.084C565.996 386.324 563.362 329.914 562.947 432.524C562.947 461.63 566.088 470.362 606.975 490.182C608.592 490.967 594.409 501.547 594.316 501.593C569.692 519.242 584.152 510.833 556.894 521.783C552.274 523.538 533.194 531.439 532.87 528.528C529.174 497.62 521.782 490.552 516.7 472.441C512.08 456.456 506.906 452.39 506.444 447.031C505.797 439.177 487.964 423.931 485.793 421.159C485.007 420.235 485.1 419.866 486.255 419.45C538.322 402.494 530.422 389.605 525.155 392.7C514.437 398.937 466.435 416.123 444.074 390.482C419.265 362.855 418.71 312.82 428.874 315.962L428.967 315.777ZM443.52 443.52C446.773 437.764 449.083 431.527 450.357 425.04C450.477 424.57 450.442 424.074 450.265 423.623C450.084 423.173 449.768 422.792 449.36 422.53C448.952 422.268 448.471 422.145 447.986 422.172C447.501 422.199 447.039 422.38 446.661 422.684C430.63 433.495 402.355 416.539 409.054 416.031C413.074 415.708 440.055 403.28 427.026 398.937C411.642 393.809 404.665 381.889 406.513 381.335C413.732 380.857 420.812 379.138 427.442 376.253C433.54 373.342 427.442 387.803 455.855 405.313C454.565 406.753 453.849 408.62 453.849 410.556C453.849 412.493 454.565 414.36 455.855 415.8C463.801 425.502 469.715 429.66 469.299 430.584C468.606 432.062 469.299 434.095 467.497 435.204C460.614 439.87 451.466 445.137 443.52 443.52ZM473.919 527.465C452.991 524.185 432.57 503.488 428.366 486.116C427.581 482.836 427.026 483.16 430.537 481.958C440.84 478.309 446.153 474.382 444.859 476.692C442.272 481.312 444.12 487.271 443.797 489.397C442.596 497.389 448.14 504.134 456.132 508.385C457.195 508.939 456.825 508.847 463.894 509.309C468.514 508.2 469.114 507.738 469.669 509.309C470.681 511.615 471.471 514.013 472.025 516.47C473.873 526.68 476.275 528.02 473.873 527.65L473.919 527.465ZM609.147 772.834C604.985 778.466 600.48 783.837 595.656 788.911C589.142 796.442 583.921 804.85 573.619 812.75C549.502 831.23 531.438 826.61 510.417 801.986C507.237 796.573 504.973 790.675 503.718 784.522C500.715 772.372 495.356 768.999 491.614 755.231C481.819 719.242 492.492 545.345 493.462 544.467C497.435 540.817 491.244 542.619 482.328 530.977C475.074 521.737 478.447 511.85 463.848 488.103C463.559 487.46 463.124 486.894 462.577 486.444C462.034 485.997 461.395 485.677 460.706 485.516C457.888 485.054 460.198 488.704 461.491 491.568C463.432 495.772 459.459 493.093 458.719 493.046C456.825 492.815 455.532 494.987 462 498.775C462.785 499.237 464.91 499.283 465.465 500.023C466.008 501.054 466.396 502.159 466.62 503.303C466.62 503.95 466.62 504.134 466.019 504.181C460.937 504.781 458.719 505.844 454.515 502.286C452.113 500.254 447.816 495.634 447.909 492.492C448.14 483.252 446.569 478.632 454.515 474.012C457.611 472.303 458.165 469.392 458.35 465.973C458.673 459.69 465.003 463.109 467.59 454.931C471.286 443.289 488.195 453.545 485.746 447.031C478.262 427.396 454.792 414.691 458.026 409.055C461.076 404.111 472.164 413.305 475.074 416.632C484.037 426.749 500.484 440.517 501.963 450.127C502.887 455.855 506.906 457.888 510.925 471.379C518.179 495.587 526.402 505.89 527.373 532.64C528.897 574.22 571.817 733.795 571.863 733.933C573.064 736.428 575.929 735.412 575.79 732.778C574.127 701.778 556.848 667.59 561.099 667.359C568.106 666.874 575.12 668.245 581.427 671.332C585.677 674.52 611.919 697.851 614.229 700.022C623.792 708.8 634.464 711.85 641.348 722.383C646.245 729.637 647.539 718.826 609.1 773.018L609.147 772.834ZM470.547 444.167C472.672 433.264 472.441 433.679 473.734 434.927C476.052 437.468 477.939 440.371 479.325 443.52C480.295 445.322 477.338 444.675 477.292 444.49C470.685 445.691 469.9 446.246 470.269 444.352L470.547 444.167ZM668.837 747.331C668.645 747.716 668.379 748.063 668.052 748.348C667.798 748.094 667.567 747.812 667.359 747.516C654.792 729.036 648.463 724.416 645.506 719.149C641.764 712.543 630.953 705.705 624.439 701.732C620.142 699.098 611.78 690.505 605.173 685.285C590.251 673.504 589.881 666.065 568.583 663.155C565.349 662.693 560.406 664.125 559.62 663.478C558.835 662.831 559.62 661.723 563.362 654.515C566.5 648.009 570.262 641.818 574.589 636.035C593.716 609.055 589.835 610.441 596.349 599.306C607.807 579.533 610.81 581.935 629.151 562.346C654.284 535.458 655.531 534.857 657.195 530.607C657.934 528.62 656.178 527.696 655.254 528.667C597.781 589.373 603.279 577.177 591.498 599.168C565.395 647.955 580.641 613.998 558.373 654.146C556.017 658.35 530.653 542.434 533.101 534.673C533.794 532.455 536.382 536.012 556.201 527.604C586.185 514.807 570.385 525.202 595.471 506.722C608.176 497.482 613.951 487.179 626.841 494.894C643.473 504.874 649.479 500.762 665.095 505.382C673.365 507.83 672.533 510.556 707.229 524.555C717.393 528.667 718.825 537.629 720.027 546.454C725.986 592.977 721.828 598.613 668.56 747.516L668.837 747.331Z" fill="#000001"/>
<path d="M657.102 89.305C657.934 89.305 658.535 89.305 658.257 90.7372C656.502 98.2678 666.712 104.597 664.679 108.247C661.915 113.529 659.971 119.199 658.904 125.064C658.673 126.45 659.921 125.711 660.429 126.126C662.369 127.79 663.293 119.104 668.283 109.725C671.655 103.488 661.861 97.2514 662.092 91.8922C662.369 85.0084 665.049 88.9354 671.332 90.922C674.843 92.0308 677.523 90.922 678.493 93.232C679.121 94.4664 680.168 95.4346 681.45 95.9601C682.732 96.4861 684.156 96.5342 685.469 96.0964C689.72 94.9876 688.611 98.2678 693.6 99.3304C698.59 100.393 698.544 100.162 698.544 102.01C698.544 102.657 698.544 103.35 697.758 103.535C695.383 104.345 693.119 105.447 691.013 106.815C688.38 108.062 689.535 105.937 685.146 108.801C678.539 113.098 679.648 110.372 676.876 112.544C672.256 116.286 662.138 126.958 665.372 129.499C668.606 132.04 668.976 125.387 675.536 119.381C682.097 113.375 681.08 116.286 683.298 114.761C687.918 111.897 688.565 111.481 689.258 111.435C693.231 111.111 696.28 107.785 699.283 107.508C703.349 107.138 702.286 103.581 703.164 103.858C704.042 104.135 704.042 105.013 704.365 105.798C707.276 113.052 716.331 95.9578 709.355 93.694C702.378 91.4302 700.53 96.3274 699.422 96.0502C688.703 93.6478 695.356 95.0338 689.165 91.846C686.301 90.3676 684.037 93.8326 681.727 90.5524C678.077 85.2856 680.711 90.5524 663.57 83.7148C662.369 83.2528 661.722 81.5896 660.798 80.4808C659.874 79.372 658.442 79.372 656.733 78.91C651.882 77.755 649.017 87.7804 657.102 89.305ZM707.368 97.5748C708.8 97.9906 707.738 101.363 706.444 100.67C701.547 98.1754 705.659 97.0204 707.368 97.5748ZM656.548 82.5136C657.102 82.5136 658.073 84.1306 658.581 84.916C656.04 86.995 654.839 83.1604 656.502 82.5136H656.548Z" fill="#000001"/>
<path d="M689.35 587.017C674.012 594.871 653.545 609.147 606.19 612.057C604.388 612.057 602.586 612.889 602.817 614.737C603.048 616.585 642.318 618.664 690.597 590.805C696.973 587.063 693.554 584.892 689.35 587.017Z" fill="#000001"/>
<path d="M613.397 599.63C638.114 591.914 669.9 567.29 667.867 564.61C663.848 559.482 653.684 580.087 612.057 596.35C610.579 596.904 611.226 599.168 613.397 599.63Z" fill="#000001"/>
<path d="M595.98 285.193C596.765 286.025 615.014 302.564 617.001 297.436C617.74 295.496 616.539 294.941 610.163 290.506C576.945 267.96 562.854 222.315 547.054 212.52C545.991 211.874 545.113 214.415 545.529 215.2C549.16 219.202 552.452 223.497 555.37 228.044C574.728 258.998 569.923 256.965 595.98 285.193Z" fill="#000001"/>
<path d="M598.336 519.519C587.849 525.756 587.618 528.759 582.166 531.115C578.563 532.686 549.826 543.913 552.275 548.117C553.615 550.288 553.384 548.533 584.615 534.626C589.058 531.862 593.289 528.774 597.274 525.386C613.074 513.975 615.292 514.16 614.506 511.526C613.12 507.322 604.527 515.869 598.336 519.519Z" fill="#000001"/>
<path d="M586.324 367.474C595.841 367.474 599.029 356.571 595.98 350.704C595.591 350.064 595.36 349.338 595.31 348.589C595.264 347.841 595.398 347.092 595.703 346.407C597.643 341.787 607.299 333.055 608.223 345.437C608.223 346.915 610.625 347.377 611.642 345.437C612.284 344.146 612.55 342.702 612.412 341.268C612.273 339.834 611.734 338.468 610.86 337.323C609.986 336.179 608.808 335.303 607.46 334.793C606.113 334.284 604.65 334.162 603.233 334.441C595.749 336.058 587.571 345.576 591.545 353.291C592.884 355.924 591.545 361.376 588.773 362.023C583.275 363.224 582.905 360.636 581.565 363.131C580.226 365.626 583.182 367.474 586.324 367.474Z" fill="#000001"/>
<path d="M554.4 157.08C554.677 153.938 553.753 145.114 561.561 142.989C567.844 141.233 571.309 141.834 574.127 136.937C576.53 132.779 574.127 131.485 576.391 127.189C583.968 113.329 580.087 115.454 590.251 111.019C617.417 98.9605 594.871 83.5759 592.469 91.3375C591.221 95.0797 593.624 97.2049 595.241 93.6013C596.072 91.7071 604.896 98.5447 594.501 104.227C584.892 109.448 580.226 109.402 577.638 116.008C575.051 122.615 570.893 126.819 571.032 132.917C571.032 137.26 567.012 137.122 562.346 138.046C558.654 139.057 555.42 141.307 553.191 144.42C550.962 147.533 549.872 151.318 550.103 155.14C550.196 163.456 553.799 164.287 554.4 157.08Z" fill="#000001"/>
<path d="M496.188 194.363C493.2 194.294 490.228 194.859 487.475 196.022C484.719 197.185 482.239 198.918 480.203 201.109C477.477 204.019 480.203 206.653 482.975 204.296C485.042 202.163 487.606 200.581 490.44 199.693C493.27 198.805 496.28 198.641 499.191 199.214C533.748 203.834 536.151 246.477 571.494 288.611C575.698 293.555 578.978 291.753 577.361 288.842C570.839 280.788 564.806 272.349 559.297 263.571C530.145 211.273 527.327 198.983 496.188 194.363Z" fill="#000001"/>
<path d="M498.96 237.237C497.343 238.946 496.142 242.642 498.544 241.857C501.87 240.517 505.012 236.59 513.374 236.683C524.97 236.683 529.175 253.684 529.96 245.045C528.99 231.323 512.173 223.054 498.96 237.237Z" fill="#000001"/>
<path d="M506.952 291.614C509.447 291.614 509.586 289.951 510.233 287.41C509.493 282.513 505.613 282.79 504.689 285.608C503.765 288.427 504.227 291.476 506.952 291.614Z" fill="#000001"/>
<path d="M469.53 200.508C469.53 203.603 469.53 209.24 472.718 208.732C476.922 208.085 469.992 200.231 476.414 190.252C477.126 188.868 478.143 187.661 479.379 186.719C480.618 185.776 482.051 185.12 483.575 184.8C484.11 184.582 484.576 184.229 484.934 183.775C485.288 183.322 485.523 182.783 485.608 182.213C485.377 176.114 469.346 182.813 469.53 200.508Z" fill="#000001"/>
<path d="M438.9 29.3832C440.286 29.7528 442.272 27.7662 444.49 27.3966C447.816 26.8422 456.641 26.565 458.35 29.9376C463.848 40.5174 445.229 53.7306 442.965 68.3298C441.533 77.5698 451.235 79.9722 466.065 84.084C478.863 87.5952 455.024 103.904 462.323 113.744C463.524 115.315 466.943 118.364 469.715 121.275C476.691 128.575 467.636 138.323 472.21 139.293C476.784 140.263 480.156 125.017 472.21 117.302C463.386 108.431 462.462 111.527 471.84 95.1258C474.289 90.8292 475.629 83.2986 470.27 80.9886C464.91 78.6786 465.65 80.388 452.806 75.3984C433.217 67.8678 470.454 45.507 461.63 28.0896C459.597 23.1 455.301 23.6544 449.433 23.1C437.606 22.8228 437.19 28.9212 438.9 29.3832Z" fill="#000001"/>
<path d="M465.834 350.565C465.834 348.902 464.818 344.051 460.937 343.958C456.317 343.958 455.624 350.842 458.951 354.215C460.937 356.294 464.726 356.756 465.834 350.565Z" fill="#000001"/>
<path d="M448.972 283.806C448.602 279.186 444.952 279.186 444.352 280.942C441.441 286.162 447.493 291.06 448.972 283.806Z" fill="#000001"/>
<path d="M369.6 444.629C264.31 479.695 267.96 476.969 270.963 482.79C292.354 527.281 291.614 525.202 295.449 525.617C305.983 522.568 391.915 494.063 392.469 493.786C398.383 491.753 394.964 488.519 379.163 456.456C373.619 444.814 373.804 443.243 369.6 444.629ZM389.558 490.136L295.68 521.136C294.571 521.136 296.096 523.769 275.213 482.467C274.151 480.388 268.56 483.206 334.488 461.122C345.945 457.288 356.849 453.453 369.092 449.434C372.279 448.417 369.739 445.276 382.952 472.534C391.314 490.274 391.684 489.443 389.605 490.136H389.558Z" fill="#000001"/>
<path d="M364.241 486.763C363.641 486.763 303.812 505.243 299.561 507.276C297.482 508.154 295.588 510.926 298.129 511.573C298.961 511.573 366.551 491.845 370.109 487.733C368.261 484.315 366.69 486.671 364.241 486.763Z" fill="#000001"/>
<path d="M308.479 482.744C316.102 481.404 315.824 478.955 320.306 479.186C328.853 478.031 332.087 474.566 339.848 472.626C347.61 470.686 349.828 471.24 355.88 468.006C357.358 467.267 358.375 464.68 355.233 464.033C354.679 464.033 351.121 465.095 345.993 466.389C327.744 471.009 325.203 474.428 320.491 474.335C315.039 474.335 315.27 476.553 307.139 478.355C288.659 482.467 291.662 484.222 286.718 484.453C286.118 484.453 285.148 485.885 284.963 486.44C284.547 488.103 289.583 489.073 291.985 487.733C297.125 485.058 302.718 483.367 308.479 482.744Z" fill="#000001"/>
<path d="M324.094 252.206C330.839 243.243 326.866 244.537 349.088 252.206C349.55 252.42 350.069 252.481 350.568 252.382C351.068 252.282 351.523 252.026 351.868 251.65C352.212 251.275 352.429 250.8 352.485 250.293C352.542 249.787 352.436 249.276 352.183 248.833C349.751 243.555 346.941 238.46 343.775 233.587C341.881 231.185 351.629 220.79 351.814 215.107C352.091 206.745 334.951 220.651 331.208 215.754C328.205 211.827 323.632 207.484 320.629 202.726C319.289 200.554 316.702 199.769 316.286 202.356C312.728 225.964 318.457 220.143 305.29 225.225C297.944 228.089 297.713 228.043 297.298 230.399C296.004 237.838 313.19 238.9 313.237 242.273C313.514 257.473 312.913 256.549 313.237 259.736C313.302 260.164 313.481 260.566 313.756 260.9C314.03 261.234 314.39 261.488 314.797 261.635C315.204 261.782 315.643 261.816 316.067 261.733C316.492 261.651 316.887 261.456 317.21 261.169C319.751 258.379 322.054 255.38 324.094 252.206ZM313.699 236.729C297.898 230.815 297.898 232.109 315.269 225.826C319.058 224.44 317.256 216.17 319.889 209.055C336.383 224.486 322.477 223.192 346.593 217.648C343.036 227.165 335.644 229.891 339.894 234.835C342.27 238.16 344.327 241.703 346.039 245.414C347.194 247.355 341.419 245.414 333.241 242.365C328.621 240.656 329.684 237.191 318.781 252.437C314.53 258.397 320.675 239.316 313.699 236.729Z" fill="#000001"/>
<path d="M235.159 171.448C237.377 169.046 237.423 169.046 239.456 171.448C241.525 173.909 243.094 176.749 244.076 179.81C244.907 182.767 241.766 181.196 240.796 181.243C236.176 181.243 238.07 184.708 239.225 185.262C250.59 190.76 255.487 177.685 255.811 181.982C256.319 187.803 256.273 194.132 256.55 201.755C256.55 205.22 259.368 207.854 261.724 205.729C264.08 203.603 270.364 197.228 279.28 188.542C293.879 174.266 294.48 174.682 294.295 171.864C292.17 140.91 289.675 148.764 299.839 137.722C312.128 124.463 336.799 97.4821 344.792 81.3121C357.127 56.8723 362.024 31.1389 350.521 29.8453C335.136 28.1359 308.386 41.5801 295.081 53.2687C285.538 61.4399 276.627 70.3203 268.423 79.8337C240.703 110.279 248.557 105.336 236.083 106.999C210.997 110.233 219.775 104.828 188.59 138.831C184.755 143.035 187.481 145.9 189.976 145.9C197.463 145.117 204.998 144.871 212.521 145.16C211.216 146.511 210.256 148.158 209.725 149.96C209.194 151.762 209.107 153.666 209.472 155.509C210.436 159.171 212.367 162.506 215.062 165.165C216.587 166.135 217.696 164.426 217.095 162.624C216.818 161.7 212.059 154.678 213.445 152.968C214.831 151.259 218.342 152.968 228.553 160.73C231.371 162.855 225.965 164.888 221.392 171.633C218.758 175.606 223.424 177.639 224.672 178.563C225.919 179.487 227.074 179.672 228.322 178.794L235.159 171.448ZM212.521 202.541C180.181 253.361 172.974 306.583 197.922 372.742C198.384 373.897 199.955 379.117 201.526 378.055C206.515 374.774 180.135 333.194 188.821 272.026C196.813 215.754 233.958 183.275 235.021 178.378C235.575 175.976 234.697 174.959 231.833 176.068C224.755 184.407 218.3 193.255 212.521 202.541ZM226.936 154.262C217.927 147.47 214.369 150.473 216.079 147.563C216.91 146.131 217.742 144.514 219.082 145.114C225.503 145.669 227.721 148.117 235.483 153.384C236.822 154.308 235.76 155.324 233.635 157.403C232.387 158.789 232.664 158.512 227.12 154.262H226.936ZM226.381 175.144C222.962 172.788 221.438 177.593 262.602 129.637C264.635 127.327 267.222 125.017 268.469 128.113C268.608 128.251 226.612 175.052 226.381 175.144ZM251.098 179.764C247.033 183.229 250.682 179.764 243.66 170.524C240.426 166.274 240.01 166.274 240.611 165.581C244.353 161.192 243.568 159.113 252.53 176.623C253.454 177.87 252.53 178.563 251.237 179.672L251.098 179.764ZM261.817 200.647C260.338 202.171 261.031 202.125 259.414 178.979C259.414 176.807 277.894 162.347 283.854 155.232C289.814 148.117 288.474 149.318 290.461 170.57C291.431 172.465 291.061 171.725 261.955 200.554L261.817 200.647ZM304.921 52.2061C314.249 45.3215 324.731 40.1583 335.875 36.9601C353.385 32.3401 351.445 36.9601 352.276 43.8439C351.827 50.3816 350.394 56.8141 348.026 62.9245C336.892 90.0901 337.862 87.6415 334.813 82.1899C320.675 57.0109 301.133 54.5623 304.921 52.2061ZM298.961 56.8261C304.875 51.2359 338.462 85.7473 333.611 92.2153C319.428 111.25 270.086 166.69 257.058 174.682C254.344 169.402 251.257 164.322 247.818 159.482C246.663 157.773 246.524 158.928 262.833 140.771C272.073 130.238 274.706 129.037 271.472 125.063C270.086 123.354 266.39 120.859 264.034 123.262C261.678 125.664 260.384 127.281 248.788 140.587C238.116 152.783 240.334 151.397 236.545 148.533C221.299 137.029 218.573 146.084 228.322 133.657C250.184 106.561 273.731 80.8693 298.823 56.7337L298.961 56.8261ZM215.386 115.5C217.28 113.282 217.28 113.652 239.964 110.88C243.521 110.418 233.45 118.595 226.104 129.683C224.441 132.086 218.158 140.494 215.709 140.818C215.709 140.818 192.609 141.511 192.609 141.372C191.639 140.54 203.974 128.759 215.386 115.5Z" fill="#000001"/>
<path d="M330.469 488.704C339.709 486.024 340.31 485.192 343.59 485.146C344.364 485.196 345.13 484.969 345.748 484.503C346.367 484.037 346.798 483.364 346.963 482.605C346.963 477.292 328.483 485.747 319.751 487.225C311.804 488.565 293.74 493.832 291.107 496.696C289.259 498.729 290.275 499.884 292.77 500.023C302.01 496.881 300.763 496.465 304.089 495.403C323.401 490.136 310.095 494.571 330.469 488.704Z" fill="#000001"/>
<path d="M314.16 341.88C311.296 342.249 301.779 344.329 300.3 344.744C297.575 345.437 289.027 326.541 286.856 333.564C281.543 350.842 288.843 348.025 275.306 349.18C269.762 349.642 269.67 351.12 269.808 353.8C269.808 355.601 270.455 355.971 273.781 358.003C288.796 367.243 282.236 360.544 280.989 377.638C280.989 379.995 282.19 381.103 284.084 380.503C288.381 379.071 295.172 366.643 298.314 368.26C302.859 369.832 307.486 371.159 312.174 372.233C314.807 372.972 315.916 371.586 315.593 369.553C315.084 366.319 311.527 364.933 307.969 358.373C307.184 356.848 307.369 357.541 316.193 346.962C317.718 345.021 318.411 341.371 314.16 341.88ZM303.996 360.36C308.293 367.936 310.048 367.243 301.686 365.395C291.984 363.224 296.373 362.578 286.302 372.788C285.1 374.035 286.533 368.953 286.902 364.148C287.318 358.419 276.23 356.571 274.613 353.568C275.399 353.568 274.013 353.568 281.127 352.875C289.905 352.136 285.747 347.193 289.582 339.339C292.723 342.018 295.958 350.057 298.822 349.456C322.245 344.005 298.914 351.397 303.996 360.36Z" fill="#000001"/>
<path d="M296.882 110.048C319.197 108.893 317.626 76.2296 296.189 76.7378C272.581 79.6022 276.878 110.88 296.882 110.048ZM294.434 81.2654C296.233 80.9462 298.08 81.0294 299.843 81.5083C301.606 81.9873 303.242 82.8504 304.632 84.0359C306.022 85.2217 307.132 86.7001 307.883 88.3656C308.635 90.0307 309.008 91.8417 308.977 93.6686C308.946 95.4954 308.511 97.2926 307.703 98.9311C306.895 100.57 305.735 102.01 304.305 103.147C302.875 104.284 301.211 105.091 299.433 105.509C297.654 105.928 295.805 105.947 294.018 105.567C291.209 104.968 288.695 103.412 286.907 101.164C285.119 98.9165 284.168 96.1168 284.217 93.2451C284.266 90.373 285.312 87.6075 287.177 85.4222C289.04 83.237 291.606 81.7674 294.434 81.2654Z" fill="#000001"/>
<path d="M245.924 417.371C242.874 417.925 242.274 421.991 246.201 421.991C266.252 421.667 267.268 385.354 247.956 385.631C245.857 385.554 243.761 385.851 241.766 386.509C241.488 383.876 246.386 372.372 241.211 363.409C235.482 353.523 218.897 354.169 213.491 367.798C211.416 373.694 210.528 379.941 210.877 386.182C211.225 392.423 212.805 398.529 215.524 404.157C216.587 406.236 219.266 405.035 218.619 402.263C204.759 362.855 231.879 352.691 237.977 366.921C243.059 378.794 232.064 391.914 236.822 394.64C240.195 396.534 241.904 389.096 248.418 390.02C256.873 391.499 258.398 400.692 257.012 406.837C254.655 416.955 248.28 416.909 245.924 417.371Z" fill="#000001"/>
<path d="M198.106 382.258C172.281 339.847 165.766 265.696 197.691 205.266C205.034 192.391 213.262 180.041 222.315 168.306C226.612 164.102 222.315 161.884 219.959 164.564C193.209 196.211 172.234 242.041 172.234 283.344C172.234 343.866 187.388 373.342 194.965 382.397C198.661 386.648 200.555 386.278 198.106 382.258Z" fill="#000001"/>
<path d="M176.669 418.757C153.569 426.01 156.202 399.214 179.071 408.501C179.354 408.67 179.67 408.778 179.997 408.812C180.325 408.851 180.657 408.812 180.969 408.708C181.282 408.604 181.567 408.431 181.806 408.204C182.045 407.977 182.231 407.7 182.352 407.392C183.599 404.574 181.15 403.881 178.794 403.095C166.182 398.891 180.226 374.82 197.69 404.204C199.122 406.606 201.571 404.943 201.016 403.095C197.32 389.928 182.536 379.995 173.296 388.08C171.332 389.739 170.017 392.042 169.586 394.579C169.155 397.116 169.635 399.722 170.94 401.94C160.037 402.217 157.08 406.56 155.833 412.243C153.338 425.641 174.913 427.212 180.411 421.945C182.536 419.82 180.781 417.463 176.669 418.757Z" fill="#000001"/>
<path d="M145.3 336.659C144.607 335.273 144.145 332.594 140.957 334.534C127.975 342.435 130.608 341.187 127.097 337.445C121.83 331.947 120.49 329.822 117.857 330.469C116.702 330.792 116.979 333.148 117.256 334.396C120.444 349.18 121.46 345.253 115.454 347.47C114.068 348.025 112.867 348.672 107.231 351.028C106.7 351.271 106.25 351.662 105.935 352.153C105.62 352.644 105.452 353.216 105.452 353.8C105.452 354.384 105.62 354.955 105.935 355.447C106.25 355.938 106.7 356.329 107.231 356.572C124.417 362.993 120.536 361.792 121.691 369.046C123.031 377.362 123.262 379.441 125.018 379.626C125.733 379.722 126.461 379.58 127.088 379.22C127.714 378.861 128.204 378.305 128.483 377.639C135.69 360.129 130.978 364.749 137.723 365.95C149.319 368.029 149.92 369.184 151.583 367.151C153.246 365.119 149.873 362.116 148.21 360.221C137.307 347.655 140.541 355.971 145.3 336.659ZM141.881 361.931C139.412 361.746 137.015 361.021 134.858 359.806C129.037 357.912 129.037 369.554 126.727 371.541C126.168 369.099 125.858 366.607 125.803 364.102C125.803 359.02 123.031 358.651 114.623 354.031C112.775 352.968 116.979 352.552 121.738 350.15C126.496 347.747 122.708 343.127 122.615 339.893C122.615 337.953 125.849 342.619 127.882 345.16C131.024 349.087 131.393 342.85 140.218 340.217C138.739 347.84 133.611 349.826 138.554 355.093C145.762 362.809 143.821 362.116 141.881 361.931Z" fill="#000001"/>
</svg>
