<svg width="110" height="34" viewBox="0 0 110 34" fill="none" xmlns="http://www.w3.org/2000/svg">
<path d="M0.968 0.399998H6.248V14.08H11.912V0.399998H17.192V34H11.912V18.88H6.248V34H0.968V0.399998ZM21.1243 0.399998H35.5243V5.2H26.4043V14.08H33.6523V18.88H26.4043V29.2H35.5243V34H21.1243V0.399998ZM38.5618 0.399998H46.3858C49.1058 0.399998 51.0898 1.04 52.3378 2.32C53.5858 3.568 54.2098 5.504 54.2098 8.128V10.192C54.2098 13.68 53.0578 15.888 50.7538 16.816V16.912C52.0338 17.296 52.9298 18.08 53.4418 19.264C53.9858 20.448 54.2578 22.032 54.2578 24.016V29.92C54.2578 30.88 54.2898 31.664 54.3538 32.272C54.4178 32.848 54.5778 33.424 54.8338 34H49.4578C49.2658 33.456 49.1378 32.944 49.0738 32.464C49.0098 31.984 48.9778 31.12 48.9778 29.872V23.728C48.9778 22.192 48.7218 21.12 48.2098 20.512C47.7298 19.904 46.8818 19.6 45.6658 19.6H43.8418V34H38.5618V0.399998ZM45.7618 14.8C46.8178 14.8 47.6018 14.528 48.1138 13.984C48.6578 13.44 48.9297 12.528 48.9297 11.248V8.656C48.9297 7.44 48.7058 6.56 48.2578 6.016C47.8418 5.472 47.1698 5.2 46.2418 5.2H43.8418V14.8H45.7618ZM62.0011 0.399998H69.1531L74.6251 34H69.3451L68.3851 27.328V27.424H62.3851L61.4251 34H56.5291L62.0011 0.399998ZM67.7611 22.864L65.4091 6.256H65.3131L63.0091 22.864H67.7611ZM77.1868 0.399998H82.4668V29.2H91.1548V34H77.1868V0.399998ZM93.6868 0.399998H101.751C104.375 0.399998 106.343 1.104 107.655 2.512C108.967 3.92 109.623 5.984 109.623 8.704V25.696C109.623 28.416 108.967 30.48 107.655 31.888C106.343 33.296 104.375 34 101.751 34H93.6868V0.399998ZM101.655 29.2C102.519 29.2 103.175 28.944 103.623 28.432C104.103 27.92 104.343 27.088 104.343 25.936V8.464C104.343 7.312 104.103 6.48 103.623 5.968C103.175 5.456 102.519 5.2 101.655 5.2H98.9668V29.2H101.655Z" fill="#2DD4BF"/>
</svg>
